<?xml version="1.0" encoding="UTF-8"?>
<svg width="32" height="32" viewBox="0 0 503.467 503.467" xmlns="http://www.w3.org/2000/svg">
    <g transform="translate(1 9)">
        <path fill="#FF6B00" d="M122.733,319.533c28.16,0,51.2,23.04,51.2,51.2c0,28.16-23.04,51.2-51.2,51.2s-51.2-23.04-51.2-51.2
            C71.533,342.573,94.573,319.533,122.733,319.533z M412.867,319.533c28.16,0,51.2,23.04,51.2,51.2c0,28.16-23.04,51.2-51.2,51.2
            c-28.16,0-51.2-23.04-51.2-51.2C361.667,342.573,384.707,319.533,412.867,319.533z"/>
        <path fill="#FFFFFF" d="M412.867,353.667c9.387,0,17.067,7.68,17.067,17.067c0,9.387-7.68,17.067-17.067,17.067
            s-17.067-7.68-17.067-17.067C395.8,361.347,403.48,353.667,412.867,353.667z M122.733,353.667c9.387,0,17.067,7.68,17.067,17.067
            c0,9.387-7.68,17.067-17.067,17.067s-17.067-7.68-17.067-17.067C105.667,361.347,113.347,353.667,122.733,353.667z"/>
        <path fill="#FF6B00" d="M327.533,285.4v85.333h-153.6c0-28.16-23.04-51.2-51.2-51.2s-51.2,23.04-51.2,51.2H37.4
            c-9.387,0-17.92-3.413-23.893-10.24c-5.973-5.973-10.24-14.507-10.24-23.893v-51.2H327.533z M498.2,285.4v85.333h-34.133
            c0-28.16-23.04-51.2-51.2-51.2c-28.16,0-51.2,23.04-51.2,51.2h-34.133V285.4v-68.267h85.333h51.2l25.6,25.6
            c8.533,8.533,8.533,25.6,8.533,25.6V285.4z"/>
        <path fill="#FFFFFF" d="M412.867,217.133h-85.333V80.6H421.4c18.773,0,34.133,15.36,34.133,34.133l8.533,102.4H412.867z"/>
        <path fill="#FF6B00" d="M327.533,217.133V285.4H3.267V63.533C3.267,44.76,18.627,29.4,37.4,29.4h290.133v51.2V217.133z"/>
    </g>
</svg> 